<?xml version="1.0" standalone="no"?>
<!DOCTYPE svg PUBLIC "-//W3C//DTD SVG 20010904//EN"
 "http://www.w3.org/TR/2001/REC-SVG-20010904/DTD/svg10.dtd">
<svg version="1.0" xmlns="http://www.w3.org/2000/svg"
 width="300.000000pt" height="300.000000pt" viewBox="0 0 300.000000 300.000000"
 preserveAspectRatio="xMidYMid meet">
<metadata>
Created by potrace 1.16, written by Peter Selinger 2001-2019
</metadata>
<g transform="translate(0.000000,300.000000) scale(0.029268,-0.034404)"
fill="#000000" stroke="none">
<path d="M4840 8319 c-135 -9 -344 -38 -380 -51 -14 -5 -47 -11 -75 -12 -27
-2 -119 -20 -202 -40 -172 -43 -156 -28 -155 -143 1 -95 -26 -51 -31 50 -2 38
-2 38 -36 32 -97 -18 -611 -225 -611 -246 0 -5 -7 -9 -15 -9 -23 0 -102 -42
-270 -143 -575 -345 -1032 -807 -1387 -1400 -70 -118 -151 -277 -141 -277 5 0
3 -4 -4 -8 -36 -23 -263 -612 -249 -647 2 -7 19 -16 36 -20 17 -4 38 -18 46
-31 9 -13 25 -24 35 -24 10 0 21 -4 24 -10 14 -22 23 -6 45 73 35 124 135 387
201 526 32 68 57 127 54 131 -3 5 -1 10 5 12 5 1 38 53 73 115 l64 111 -26 20
c-19 15 -23 23 -15 31 8 9 18 9 38 0 14 -7 28 -10 29 -8 2 2 45 65 95 139 274
409 669 790 1097 1060 72 45 129 86 127 91 -1 5 6 9 16 9 10 0 65 24 123 54
303 159 582 259 978 353 106 25 131 29 185 32 l29 1 -28 26 c-25 23 -26 28
-16 51 l12 26 42 -45 42 -45 95 13 c143 20 571 29 725 15 323 -28 610 -86 898
-182 98 -32 184 -59 192 -59 7 0 15 -3 17 -7 2 -5 39 -23 83 -42 142 -61 351
-169 485 -250 l131 -80 11 24 c14 32 31 21 23 -15 -5 -22 -1 -31 17 -44 12 -9
30 -16 40 -16 10 0 18 -6 18 -13 0 -8 21 -29 48 -47 26 -19 94 -72 150 -118
68 -54 109 -81 119 -77 21 7 53 -23 53 -50 0 -30 173 -188 189 -172 8 8 11 8
11 0 0 -6 -6 -13 -12 -16 -8 -2 14 -33 55 -76 74 -78 202 -237 269 -332 23
-32 48 -59 56 -59 7 0 10 -5 7 -10 -3 -6 19 -49 50 -96 30 -47 74 -117 96
-157 38 -66 39 -72 23 -84 -16 -12 -16 -13 -1 -13 9 0 17 -4 17 -9 0 -8 -38
-3 -87 13 -12 4 -24 2 -28 -4 -3 -5 -16 -10 -28 -10 -12 0 -35 -7 -51 -15 -15
-8 -32 -13 -36 -10 -8 5 -98 -11 -537 -94 -117 -23 -217 -41 -223 -41 -5 0
-10 -6 -10 -14 0 -18 -31 -30 -41 -15 -5 9 -28 8 -93 -1 l-86 -13 -22 29
c-175 223 -381 413 -628 579 -125 84 -340 203 -340 189 0 -4 16 -36 35 -71 37
-68 39 -73 28 -73 -5 0 -24 25 -42 55 -19 30 -40 55 -46 55 -10 0 -50 -59 -43
-64 1 -1 53 -29 113 -61 210 -110 402 -248 577 -414 81 -77 228 -241 228 -255
0 -3 -13 -6 -29 -6 -21 0 -38 10 -61 37 -31 35 -33 36 -46 18 -18 -24 -17 -30
1 -45 8 -7 15 -16 15 -21 0 -5 -7 -9 -15 -9 -8 0 -15 -5 -15 -12 0 -6 -14 -33
-31 -59 -21 -33 -39 -50 -60 -54 -32 -7 -36 -17 -16 -33 13 -11 102 3 367 56
52 11 152 30 223 42 89 17 127 27 127 37 0 19 -27 28 -44 14 -20 -17 -68 -3
-64 18 2 9 13 16 28 16 14 0 35 4 48 9 16 5 29 3 41 -8 10 -9 28 -16 40 -16
12 0 20 -4 16 -9 -3 -5 -1 -12 4 -15 5 -3 206 32 447 79 242 47 522 101 624
121 102 19 251 49 331 65 81 16 158 29 172 29 14 0 29 5 32 11 5 7 12 6 23 -4
10 -7 37 -19 61 -26 31 -9 60 -29 98 -67 29 -30 53 -61 53 -69 0 -19 23 -29
100 -46 l65 -13 -50 -8 c-27 -4 -60 -6 -73 -3 -19 5 -23 2 -18 -12 3 -10 12
-61 21 -113 9 -52 22 -112 31 -133 8 -21 12 -42 9 -47 -8 -12 6 -41 16 -34 5
3 20 -6 34 -20 19 -19 25 -36 25 -66 0 -42 14 -79 34 -92 18 -12 -7 -43 -38
-46 -23 -3 -27 -7 -23 -25 3 -12 17 -85 32 -162 14 -77 30 -148 35 -157 6 -10
10 -30 10 -44 0 -24 42 -254 86 -471 33 -167 -50 -299 -216 -343 -25 -6 -52
-18 -61 -27 -13 -11 -18 -11 -21 -2 -4 13 -89 -2 -515 -87 -67 -13 -125 -24
-128 -24 -3 0 -5 -9 -5 -19 0 -11 -4 -23 -10 -26 -5 -3 -10 3 -10 14 0 13 -7
21 -17 21 -22 0 -376 -70 -382 -76 -2 -2 2 -10 8 -18 19 -23 -2 -27 -57 -11
-67 20 -104 12 -96 -21 5 -20 2 -24 -16 -24 -13 0 -24 8 -27 20 -6 21 -16 23
-47 11 -15 -6 -16 -10 -7 -16 14 -8 50 -82 51 -102 0 -29 -17 -10 -28 32 -16
61 -33 68 -117 44 -53 -15 -87 -19 -140 -15 -64 5 -68 4 -50 -10 17 -13 18
-16 5 -24 -19 -12 -111 -32 -117 -26 -3 3 17 16 44 31 29 16 38 24 23 21 -14
-3 -90 -17 -170 -31 -179 -32 -175 -31 -188 -58 -10 -21 -11 -21 -11 -1 -1 20
-1 20 -136 -5 -94 -18 -134 -29 -131 -38 4 -11 -36 -30 -101 -48 -35 -10 -28
14 10 30 17 8 28 14 22 15 -5 0 -129 -23 -275 -51 -164 -32 -272 -58 -283 -67
-13 -12 -20 -13 -25 -5 -6 9 -25 9 -77 -3 -79 -16 -401 -78 -675 -129 -102
-19 -199 -42 -215 -50 -17 -9 -38 -13 -46 -10 -9 3 -110 -12 -225 -35 -115
-22 -303 -59 -419 -81 -115 -22 -264 -51 -330 -64 -66 -13 -219 -43 -340 -66
-121 -23 -223 -46 -226 -52 -4 -5 -12 -6 -18 -3 -13 8 -131 -13 -131 -24 0 -3
11 -13 24 -20 14 -7 28 -20 31 -28 14 -36 -23 -23 -50 19 -19 28 -23 30 -65
24 -25 -4 -47 -9 -49 -11 -8 -8 24 -34 47 -39 29 -5 102 -46 102 -57 0 -18
-44 -5 -130 39 l-91 46 -217 -42 c-119 -23 -282 -55 -362 -71 -80 -15 -255
-49 -390 -75 -135 -25 -253 -50 -263 -56 -10 -5 -21 -8 -25 -5 -4 2 -59 -6
-122 -19 -63 -13 -127 -24 -142 -25 -15 0 -34 -7 -43 -16 -10 -11 -24 -14 -41
-10 -14 4 -30 3 -37 -1 -7 -4 -23 -8 -37 -9 -14 -1 -61 -9 -105 -17 -44 -9
-132 -25 -195 -37 -63 -12 -119 -25 -124 -28 -6 -3 -19 -6 -30 -7 -89 -7 -136
-18 -136 -34 0 -12 -2 -13 -9 -3 -11 18 -341 -45 -341 -65 0 -9 8 -11 24 -7
28 7 61 -9 76 -35 7 -15 5 -25 -9 -42 -16 -20 -21 -21 -35 -10 -9 7 -23 11
-31 7 -16 -6 -21 -32 -7 -39 4 -2 61 6 127 19 66 12 181 34 255 48 74 14 138
26 142 26 3 0 33 -49 66 -108 201 -359 487 -715 804 -998 188 -167 366 -300
381 -285 17 17 29 13 18 -7 -9 -16 2 -27 82 -79 611 -402 1329 -628 2062 -650
378 -11 718 26 1092 117 263 65 431 124 435 153 2 13 11 21 25 22 13 1 31 10
42 19 19 17 19 18 -1 52 l-21 35 53 49 c30 27 51 52 49 55 -3 3 -35 -7 -70
-21 -265 -109 -610 -206 -884 -249 -222 -34 -365 -44 -627 -45 l-218 0 0 -30
c0 -16 -4 -30 -10 -30 -5 0 -10 16 -10 35 0 35 -1 35 -43 35 -43 0 -281 31
-391 51 -47 8 -61 8 -67 -3 -7 -10 -9 -10 -9 2 0 12 -31 23 -117 44 -65 16
-174 47 -243 69 -69 22 -135 40 -148 39 -13 -1 -21 2 -18 6 3 5 -34 24 -82 41
-205 77 -589 282 -765 407 -26 19 -52 32 -57 29 -6 -4 -10 0 -10 7 0 7 -8 18
-19 25 -47 29 -275 218 -352 291 -49 46 -95 82 -107 82 -10 0 -31 -9 -46 -21
-14 -11 -32 -19 -38 -17 -7 3 9 17 35 32 l47 28 -108 114 -107 114 -13 -27
c-13 -28 -13 -28 -7 8 5 33 2 39 -30 64 -23 17 -34 32 -31 42 8 20 -42 79 -63
75 -11 -2 -12 0 -4 6 9 6 -3 30 -45 87 -96 134 -233 368 -219 377 27 17 44 4
81 -60 42 -72 213 -333 243 -369 16 -19 21 -20 41 -10 22 13 22 13 -37 93 -54
73 -191 286 -220 341 -10 20 -9 23 13 29 14 3 31 12 37 20 9 11 14 12 19 4 5
-9 35 -6 111 9 57 11 190 36 294 56 105 20 279 54 387 76 109 21 208 39 221
39 17 0 42 -23 94 -87 150 -186 395 -403 613 -545 98 -63 232 -138 248 -138 9
0 48 109 40 115 -2 1 -34 19 -73 40 -38 21 -113 66 -166 100 l-95 62 -92 -3
c-51 -1 -92 1 -92 5 0 13 70 64 77 57 4 -3 3 -6 -1 -6 -4 0 -2 -9 4 -20 7 -13
21 -20 41 -20 17 0 29 4 27 8 -1 5 -46 44 -98 87 -143 117 -360 344 -360 376
0 5 12 9 28 9 21 0 38 -13 76 -59 86 -105 120 -133 149 -126 26 7 25 9 -60
103 l-87 97 369 72 c547 106 664 128 950 183 324 62 305 58 305 75 0 18 17 20
22 3 5 -13 31 -9 451 73 109 22 206 39 216 39 10 0 24 6 31 14 6 8 24 16 38
18 20 2 28 9 30 28 2 14 8 31 14 37 17 21 31 2 25 -34 -6 -33 -5 -34 21 -29
15 3 90 17 167 31 200 37 199 36 205 70 3 16 11 30 19 33 10 3 12 -1 8 -17 -4
-15 0 -24 10 -28 19 -7 214 26 230 39 7 5 16 8 20 5 4 -3 68 7 142 22 l134 26
4 40 c5 54 13 58 13 7 0 -23 4 -42 9 -42 4 0 62 11 127 24 66 13 165 32 222
42 100 17 103 18 97 41 -3 13 -1 23 5 23 5 0 10 -6 10 -14 0 -8 4 -17 9 -20 7
-5 156 20 240 39 21 5 23 3 17 -20 -5 -18 -2 -25 9 -25 8 0 15 -4 15 -10 0 -5
-8 -10 -19 -10 -13 0 -25 -18 -44 -67 -14 -38 -35 -91 -48 -119 -20 -48 -21
-53 -6 -75 16 -23 17 -22 55 62 49 107 53 119 42 119 -6 0 -10 5 -10 10 0 6 7
10 15 10 9 0 22 25 36 70 17 58 25 71 45 76 14 4 27 4 30 1 10 -9 -66 -218
-122 -337 -57 -120 -61 -145 -28 -197 8 -12 14 -37 14 -55 1 -32 1 -32 17 -13
38 49 170 342 217 485 47 142 53 155 76 158 14 1 174 31 355 67 182 35 357 69
389 74 76 14 86 23 15 16 -57 -6 -92 6 -73 25 6 6 34 13 63 17 43 5 57 2 80
-15 28 -20 28 -20 121 -1 52 10 100 21 108 24 27 10 29 -5 15 -92 -33 -213
-115 -535 -174 -686 -25 -64 -24 -77 6 -77 23 0 28 10 76 162 53 164 59 198
44 231 -6 15 -4 18 11 15 15 -2 20 7 30 52 10 41 10 58 1 68 -8 11 -7 16 5 23
14 8 39 118 64 287 4 27 9 32 31 32 26 0 26 0 19 -62 -10 -83 -51 -303 -77
-403 -18 -69 -100 -339 -116 -381 -3 -9 2 -14 15 -14 21 0 39 -17 28 -27 -3
-3 -18 -6 -33 -7 -24 -1 -31 -12 -88 -143 -95 -216 -170 -358 -320 -599 -34
-54 -151 -214 -219 -299 l-64 -80 29 -3 c16 -2 29 -9 29 -17 0 -13 126 -38
143 -28 13 8 151 195 224 303 142 212 288 491 383 729 47 119 51 134 37 143
-21 11 -7 43 22 53 15 4 21 18 26 53 3 26 10 62 15 81 6 23 6 39 -1 47 -8 10
-5 15 14 19 22 6 28 18 46 83 27 99 80 361 86 426 9 84 21 165 25 169 3 2 61
14 130 27 69 12 134 27 145 33 11 6 29 10 40 9 39 -5 223 37 271 61 105 54
179 142 214 255 26 85 25 141 -7 301 -26 132 -26 133 -44 110 -10 -13 -21 -20
-25 -16 -4 4 3 21 15 38 l23 31 -41 217 c-23 119 -51 259 -61 311 -11 52 -45
228 -76 390 -61 323 -74 365 -129 441 -34 45 -41 50 -67 45 -15 -3 -28 -1 -28
4 0 4 8 10 17 12 27 5 -43 55 -113 80 -95 33 -183 28 -452 -25 -128 -26 -239
-47 -245 -47 -7 0 -34 41 -62 92 -69 127 -226 363 -324 488 l-82 105 -41 -3
c-27 -3 -38 0 -34 7 4 6 16 11 27 11 10 0 19 4 19 10 0 28 -329 358 -493 495
-106 88 -332 255 -345 255 -4 0 -15 -15 -26 -33 -11 -19 -21 -27 -23 -19 -3 7
3 24 12 39 17 25 17 27 -6 44 -40 30 -277 164 -394 222 -488 244 -1054 390
-1597 412 -124 5 -138 4 -138 -11 0 -16 -1 -16 -18 -1 -21 19 -97 20 -302 6z"/>
<path d="M4880 8079 c-185 -13 -207 -17 -213 -39 -6 -24 -35 -26 -52 -4 -16
22 -65 11 -65 -14 -1 -16 -2 -16 -13 0 -12 15 -20 15 -117 -3 -137 -25 -393
-92 -397 -104 -7 -25 14 -37 48 -27 72 22 360 83 479 102 245 38 516 53 735
42 96 -5 152 -4 157 2 4 7 15 6 30 -2 13 -7 86 -21 163 -32 77 -11 159 -23
181 -26 26 -4 44 -2 48 5 11 17 33 13 39 -8 3 -14 33 -25 138 -51 149 -36 431
-133 555 -190 72 -33 82 -36 92 -21 10 14 11 14 11 -4 1 -15 17 -29 59 -49 83
-41 224 -120 326 -184 83 -52 90 -54 102 -37 7 10 11 21 8 26 -2 4 -66 45
-142 90 -177 107 -477 252 -519 253 -19 0 -33 5 -33 12 0 23 -306 123 -545
178 -338 78 -723 108 -1075 85z"/>
<path d="M5095 7935 c-2 -5 -6 -54 -10 -108 -6 -95 -6 -99 13 -93 15 5 26 -1
42 -24 12 -16 28 -30 36 -30 8 0 14 -9 14 -19 0 -28 21 -37 36 -16 14 19 44
14 44 -8 0 -18 36 -51 48 -43 5 3 12 40 16 82 3 43 8 79 11 82 2 3 64 0 137
-7 73 -6 149 -11 170 -11 l36 0 7 75 c4 42 5 78 3 81 -4 4 -173 18 -492 42
-73 5 -109 4 -111 -3z"/>
<path d="M4494 7880 c-127 -26 -240 -50 -250 -52 -13 -3 -6 -8 23 -18 37 -11
51 -11 105 3 42 11 75 14 98 9 30 -7 37 -14 50 -52 8 -25 15 -47 17 -49 5 -8
236 45 240 56 9 23 -22 148 -37 149 -8 1 -119 -20 -246 -46z"/>
<path d="M3755 7829 c-125 -48 -344 -151 -470 -221 -50 -28 -60 -37 -60 -61
-1 -15 2 -26 5 -25 3 2 100 51 215 109 124 62 281 132 382 169 95 35 172 64
170 66 -1 1 -27 4 -57 8 -50 5 -68 1 -185 -45z"/>
<path d="M6041 7807 c-56 -146 -83 -219 -166 -442 -52 -143 -100 -270 -105
-283 -6 -13 -8 -28 -5 -33 4 -5 1 -9 -4 -9 -6 0 -11 -4 -11 -9 0 -11 169 -73
181 -66 4 3 18 -4 30 -16 18 -18 23 -19 30 -7 20 35 119 315 119 336 0 12 5
22 11 22 7 0 9 -9 6 -23 -5 -19 1 -26 46 -47 67 -32 86 -64 70 -121 -8 -32 -8
-47 0 -61 10 -17 7 -24 -20 -47 -23 -19 -35 -41 -43 -75 -6 -27 -7 -53 -3 -57
4 -4 39 -19 78 -34 62 -23 71 -24 81 -10 16 21 26 19 22 -6 -2 -17 6 -24 44
-39 l48 -18 -7 41 c-3 23 -12 46 -20 50 -12 8 -11 13 6 31 24 25 56 114 66
179 7 44 -10 103 -39 137 -7 8 -16 39 -19 68 -6 47 -4 53 10 48 10 -4 25 2 39
15 35 33 48 19 19 -21 -26 -35 -33 -70 -14 -70 24 0 86 43 108 75 47 69 60
135 39 195 l-11 33 -19 -36 c-10 -21 -23 -37 -28 -37 -16 0 -11 33 11 69 l20
33 -21 23 c-40 42 -155 94 -448 201 l-93 34 -8 -23z m272 -234 c48 -24 67 -50
67 -91 0 -36 -19 -76 -48 -97 -11 -9 -9 -13 12 -23 14 -6 26 -16 26 -22 0 -17
-29 -11 -49 9 -24 24 -57 28 -94 13 -38 -16 -48 -15 -41 3 4 8 1 22 -6 30 -10
12 -7 30 16 92 45 127 42 125 117 86z"/>
<path d="M4173 7813 c-27 -10 -12 -31 27 -37 22 -3 40 -11 40 -17 0 -8 -12
-10 -35 -6 -28 5 -35 3 -35 -11 0 -19 150 -765 155 -770 2 -2 52 5 111 17 107
20 142 35 112 46 -11 5 -14 18 -10 59 2 31 -1 63 -8 76 -11 20 -10 22 5 16 12
-4 16 -2 12 8 -3 7 -11 39 -19 71 -9 40 -19 60 -30 63 -22 5 -23 40 -4 87 20
47 40 46 33 0 -4 -24 -2 -35 6 -35 26 1 277 57 283 63 4 3 1 35 -5 69 -18 94
-19 97 -41 91 -11 -3 -17 -10 -14 -15 4 -6 -5 -8 -24 -3 -18 3 -65 -1 -111
-11 -78 -17 -81 -18 -81 -46 0 -35 -17 -37 -26 -3 -4 16 -12 24 -22 23 -12 -2
-20 10 -28 47 -17 71 -17 105 0 105 23 0 47 40 36 61 -13 23 -71 42 -104 33
-33 -8 -33 -13 2 -40 15 -12 24 -26 19 -30 -4 -4 -17 2 -30 13 -32 29 -62 43
-94 43 -15 0 -39 9 -53 20 -25 19 -43 23 -67 13z"/>
<path d="M3773 7679 c-62 -28 -63 -30 -63 -68 0 -22 -4 -43 -10 -46 -6 -4 -10
8 -10 29 0 20 -5 36 -11 36 -7 0 -94 -40 -195 -89 l-183 -89 50 -109 c28 -59
68 -142 89 -183 21 -41 65 -132 98 -201 33 -70 68 -131 78 -137 11 -6 14 -12
7 -12 -12 0 28 -104 47 -124 5 -5 59 16 124 47 l116 56 -55 113 c-31 61 -59
115 -64 118 -4 3 -11 16 -14 30 -3 14 -8 35 -12 47 -6 20 6 28 133 92 l141 71
-30 67 c-17 38 -34 71 -38 76 -4 4 -68 -22 -143 -58 -75 -36 -140 -65 -145
-65 -9 0 -77 130 -70 136 2 2 71 36 153 75 82 39 150 72 152 74 6 5 -68 145
-76 144 -4 0 -35 -14 -69 -30z"/>
<path d="M5076 7678 c-12 -38 -14 -176 -3 -187 9 -9 9 -14 0 -19 -7 -4 -16
-49 -20 -105 l-9 -97 26 -1 25 -1 -26 -11 c-25 -9 -27 -15 -32 -86 -2 -42 -3
-78 -1 -80 2 -2 86 -10 186 -17 101 -8 234 -18 297 -24 63 -5 116 -9 117 -7 1
1 6 41 9 88 l7 85 -173 13 c-96 7 -175 14 -177 15 -4 4 15 177 21 182 2 3 73
0 157 -6 84 -6 154 -9 155 -8 2 2 6 39 10 84 l7 81 -152 12 c-83 7 -154 11
-156 8 -9 -8 27 -37 45 -37 29 0 40 -22 37 -68 -4 -51 -9 -58 -26 -37 -7 8
-20 15 -29 15 -10 0 -28 18 -40 41 -17 30 -27 39 -40 33 -89 -39 -164 -54
-175 -35 -11 17 26 35 75 37 50 1 79 16 79 40 0 19 -41 29 -51 13 -12 -20 -60
8 -78 46 -20 43 -57 61 -65 33z"/>
<path d="M3050 7462 c-343 -229 -609 -472 -865 -792 -109 -135 -256 -357 -249
-375 4 -9 0 -15 -9 -15 -44 0 -271 -474 -377 -790 -32 -94 -46 -195 -29 -206
17 -10 9 -24 -13 -21 -19 2 -24 -7 -40 -72 -11 -41 -31 -147 -47 -235 l-27
-161 -28 -3 c-26 -3 -28 -1 -23 25 18 90 28 175 23 188 -3 8 -1 17 3 20 5 2
14 35 21 72 7 38 21 97 31 133 20 68 14 95 -17 69 -14 -12 -16 -11 -12 6 6 32
-109 94 -126 67 -13 -21 -70 -292 -94 -449 l-27 -178 -268 -52 c-305 -60 -350
-77 -437 -169 -119 -126 -134 -231 -75 -535 21 -107 41 -198 45 -202 11 -12
124 38 128 56 2 8 -13 98 -33 199 -39 196 -40 236 -6 312 32 73 136 157 201
162 8 1 23 2 33 3 9 0 17 8 17 17 0 13 8 15 37 11 21 -2 57 2 81 10 24 8 51
11 61 8 19 -6 194 24 420 71 77 16 117 29 126 41 12 16 11 19 -13 23 -31 6
-40 37 -21 72 7 13 12 28 11 34 -5 26 50 318 83 441 114 429 262 762 492 1113
119 179 189 273 319 420 206 235 461 460 709 625 93 63 133 95 142 117 7 17
13 32 13 34 0 11 -28 -5 -160 -94z"/>
<path d="M7201 7437 c-19 -19 -12 -34 32 -62 23 -15 88 -63 144 -106 56 -44
104 -79 105 -79 8 0 181 -161 270 -252 123 -124 231 -248 319 -365 55 -73 73
-90 89 -86 11 3 20 10 20 16 0 13 -121 174 -202 269 -98 114 -250 268 -265
268 -7 0 -13 6 -13 13 0 20 -224 212 -365 312 -48 35 -70 45 -86 40 -18 -6
-20 -4 -15 13 8 23 -15 37 -33 19z"/>
<path d="M2907 7150 c-64 -16 -147 -66 -147 -89 0 -6 -9 -11 -19 -11 -25 0
-125 -109 -157 -172 -43 -85 -41 -199 3 -244 10 -9 18 -23 19 -31 3 -21 106
-144 197 -236 128 -129 210 -159 324 -121 90 31 252 154 226 172 -17 11 -55
123 -48 141 7 17 45 -48 45 -76 0 -10 7 -26 14 -36 13 -17 16 -16 39 15 53 70
82 192 53 221 -9 8 -16 27 -16 42 0 14 -12 43 -26 65 -23 34 -32 40 -63 40
-32 1 -34 2 -16 12 11 6 22 13 24 15 3 2 -8 16 -23 32 -18 19 -34 27 -47 24
-15 -4 -19 0 -19 22 0 35 -121 162 -184 194 -52 25 -125 34 -179 21z m59 -252
c27 -24 58 -54 69 -68 11 -14 49 -56 84 -95 129 -142 147 -194 86 -251 -33
-31 -40 -33 -103 -32 -45 0 -79 -5 -100 -16 -19 -10 -32 -12 -32 -6 0 13 43
30 76 30 13 0 24 3 24 7 0 4 -35 43 -78 87 -42 45 -94 100 -114 123 -22 25
-43 40 -51 37 -16 -6 -24 9 -41 82 -15 60 -9 82 34 117 48 40 87 36 146 -15z"/>
<path d="M4830 6965 c-69 -8 -154 -20 -190 -28 -63 -12 -65 -14 -68 -45 -4
-38 -19 -42 -28 -7 -3 14 -11 25 -18 25 -34 0 -249 -65 -365 -110 -131 -51
-181 -83 -181 -115 0 -8 -4 -15 -10 -15 -5 0 -10 7 -10 15 0 8 -7 15 -15 15
-17 0 -126 -60 -110 -60 23 -1 -41 -41 -89 -55 -89 -27 -334 -215 -497 -383
-115 -117 -199 -215 -199 -229 0 -6 14 -14 30 -18 17 -4 27 -11 24 -17 -6 -9
-31 -6 -66 7 -25 10 -220 -288 -298 -454 -24 -52 -24 -53 -5 -67 11 -8 29 -14
41 -12 12 2 28 -3 36 -10 14 -11 22 -1 58 69 36 71 107 191 175 292 18 28 18
29 -1 27 -40 -5 -37 1 16 37 53 35 89 72 100 100 11 28 288 298 385 375 55 44
105 85 110 92 6 6 28 21 50 32 22 12 90 51 150 88 79 48 109 71 107 83 -3 14
-1 15 11 4 13 -10 21 -9 47 4 17 9 28 21 24 26 -4 7 1 9 13 5 23 -7 162 47
180 71 6 8 17 12 23 8 6 -4 23 3 36 16 19 18 23 19 18 6 -6 -15 -3 -16 22 -7
96 37 341 92 469 105 44 5 79 15 94 26 29 23 51 24 51 3 0 -13 11 -14 78 -9
124 11 416 -12 579 -46 177 -36 277 -65 423 -122 l115 -45 22 42 c33 61 30 71
-29 96 -81 35 -219 80 -245 80 -13 0 -23 4 -23 9 0 12 -177 54 -340 81 -166
28 -520 36 -700 15z"/>
<path d="M4882 6790 c-34 -5 -70 -16 -79 -25 -9 -9 -27 -21 -41 -26 -41 -16
-22 -17 83 -6 64 7 103 16 108 24 6 9 13 11 20 5 7 -6 105 -12 219 -14 202 -5
208 -4 222 16 15 21 15 21 15 -4 1 -24 6 -27 74 -38 39 -7 124 -24 187 -38 87
-20 119 -23 132 -15 24 15 28 14 28 -8 0 -14 27 -28 128 -66 134 -50 221 -91
340 -162 41 -24 75 -43 77 -43 2 0 -2 17 -9 37 -11 33 -24 43 -132 99 -216
115 -457 195 -732 245 -92 17 -167 22 -347 24 -126 2 -258 0 -293 -5z"/>
<path d="M3940 6494 c0 -8 -5 -12 -10 -9 -30 19 -430 -265 -430 -304 0 -12
-10 -20 -29 -24 -42 -9 -302 -287 -267 -287 8 0 27 16 42 35 15 20 35 35 47
35 13 0 64 43 136 115 64 63 145 138 181 166 79 64 320 225 350 234 14 4 19
12 16 22 -3 8 -6 19 -6 24 0 5 -7 9 -15 9 -8 0 -15 -7 -15 -16z"/>
<path d="M8167 6472 c-16 -7 -14 -13 21 -62 29 -41 138 -217 147 -237 1 -2 17
-6 35 -10 l34 -6 -34 59 c-18 32 -55 94 -83 138 -46 71 -52 77 -64 60 -7 -10
-13 -13 -13 -8 0 6 5 15 11 21 8 8 7 17 -3 32 -13 22 -22 24 -51 13z"/>
<path d="M4690 6363 c-29 -112 -33 -119 -75 -133 -39 -13 -39 -13 -24 -41 6
-12 8 -27 5 -35 -8 -21 -46 1 -46 26 0 23 -16 25 -59 7 l-32 -14 38 -25 c77
-51 80 -51 116 -25 37 28 158 87 179 87 7 0 24 7 36 16 32 22 37 13 11 -19
-14 -19 -30 -27 -51 -27 -21 0 -43 -11 -69 -35 -22 -19 -46 -35 -54 -35 -24 0
-32 -31 -27 -111 l4 -76 24 23 c13 13 29 24 36 24 7 0 -2 -13 -20 -29 -17 -17
-32 -39 -32 -50 0 -27 16 -27 32 0 18 28 123 90 141 83 8 -3 18 -1 21 5 8 13
36 3 36 -13 0 -6 27 -18 60 -27 33 -9 60 -13 60 -9 0 9 -20 67 -48 136 l-21
51 35 49 c54 75 59 86 36 82 -10 -2 -21 2 -23 7 -2 6 10 11 26 13 17 2 35 8
40 14 7 7 -23 8 -96 4 l-106 -7 -58 78 c-32 43 -61 82 -65 86 -4 4 -17 -32
-30 -80z"/>
<path d="M6413 6425 c4 -9 10 -27 13 -38 3 -12 33 -40 67 -63 96 -63 211 -159
330 -273 102 -99 108 -103 122 -85 14 18 7 27 -108 139 -122 119 -257 228
-371 300 -42 27 -57 33 -53 20z"/>
<path d="M5419 6325 l-44 -65 -83 0 -84 0 48 -66 47 -67 -22 -69 c-13 -38 -20
-72 -18 -75 3 -2 37 6 76 18 l71 23 32 -24 c18 -13 48 -35 66 -48 l32 -24 0
83 0 84 66 45 66 44 -78 26 -79 27 -22 72 c-12 40 -24 75 -26 77 -2 2 -24 -25
-48 -61z"/>
<path d="M5950 6106 c-45 -35 -46 -35 -85 -21 -64 23 -67 21 -45 -36 l20 -50
-30 -44 c-16 -24 -30 -45 -30 -47 0 -2 24 -1 54 0 l54 4 33 -47 34 -47 16 53
c14 48 21 56 55 69 42 16 50 37 20 59 -15 12 -20 12 -28 0 -7 -12 -8 -11 -7 1
1 8 -1 22 -4 30 -4 8 -8 37 -9 63 l-3 48 -45 -35z"/>
<path d="M4046 6032 l5 -80 -60 -47 c-57 -45 -68 -65 -35 -65 8 0 14 6 14 14
0 16 28 41 37 33 3 -4 2 -17 -4 -29 -9 -21 -6 -24 36 -38 43 -14 46 -18 74
-88 l30 -72 42 67 42 68 72 7 c40 3 75 9 78 12 3 3 -15 29 -41 58 -51 58 -52
64 -31 134 26 86 25 87 -59 52 l-74 -31 -28 20 c-16 11 -46 30 -67 42 l-37 23
6 -80z"/>
<path d="M9180 6093 c-91 -15 -187 -37 -197 -45 -7 -5 -16 -7 -21 -4 -5 3
-116 -15 -246 -40 -219 -43 -236 -48 -237 -68 -1 -17 -2 -17 -6 -3 -2 9 -13
17 -23 17 -21 0 -343 -64 -398 -80 -19 -5 -38 -8 -41 -6 -3 2 -78 -10 -166
-28 -125 -26 -161 -36 -163 -49 -4 -20 -23 -22 -40 -5 -14 14 -152 -7 -152
-24 0 -5 -8 -7 -18 -4 -9 3 -145 -19 -301 -49 -157 -30 -292 -55 -302 -55 -9
0 -19 -9 -22 -20 -3 -12 -14 -20 -25 -20 -20 0 -39 -17 -30 -25 4 -5 261 42
288 52 8 3 26 7 40 8 14 2 144 26 290 54 146 28 357 69 470 91 113 22 369 72
570 111 201 39 372 72 380 74 212 39 209 38 192 51 -16 12 -15 13 4 14 11 0
24 -4 30 -10 6 -6 35 -5 84 3 80 13 140 14 159 3 6 -4 20 -4 31 -1 14 4 20 2
20 -9 0 -14 37 -33 46 -23 11 11 -81 76 -121 86 -45 11 -51 11 -95 4z"/>
<path d="M9378 5964 c-4 -3 -2 -18 2 -32 5 -15 16 -67 25 -117 24 -137 36
-185 46 -179 9 5 12 -17 10 -71 -2 -30 33 -226 85 -472 4 -20 7 -21 23 -11 15
9 18 21 16 52 -4 57 -96 520 -104 526 -3 3 -7 17 -8 32 0 15 -11 47 -22 72
-18 36 -20 48 -10 63 8 14 8 32 -1 76 -6 31 -15 57 -20 57 -5 0 -15 2 -22 5
-8 3 -17 3 -20 -1z"/>
<path d="M3195 5842 c-42 -23 -62 -45 -127 -142 -89 -132 -210 -369 -263 -515
-49 -135 -68 -175 -73 -152 -2 9 -10 17 -17 17 -15 0 13 93 70 232 l27 67 -21
22 c-18 19 -25 21 -62 13 l-42 -9 -48 -125 c-26 -69 -53 -147 -60 -173 -8 -33
-18 -51 -33 -57 -11 -5 -91 -23 -176 -39 -85 -16 -207 -40 -270 -52 -83 -16
-119 -27 -128 -40 -7 -11 -23 -19 -35 -19 -45 0 -46 -14 -3 -64 l43 -48 178
33 c137 26 183 39 197 54 16 16 20 17 28 6 7 -12 20 -12 87 3 43 10 105 21
138 25 33 5 116 20 185 34 69 15 328 65 575 112 l450 86 33 36 c33 38 52 40
33 5 -6 -12 -11 -23 -11 -25 0 -2 30 2 68 9 37 7 164 32 282 54 118 23 292 56
385 75 94 18 295 57 447 86 262 50 277 55 283 77 7 26 42 27 37 0 -2 -13 4
-14 40 -7 24 4 126 24 228 44 102 20 209 40 238 46 70 14 68 38 -3 55 l-50 12
45 1 c56 2 65 8 85 54 14 35 14 37 -2 37 -27 0 -457 -83 -463 -90 -3 -3 -20
-6 -38 -6 -18 -1 -40 -5 -50 -10 -9 -4 -30 -8 -47 -9 -16 -2 -104 -17 -194
-34 -177 -33 -190 -40 -191 -98 0 -22 -5 -33 -15 -33 -12 0 -13 9 -8 45 6 50
9 49 -67 31 -35 -8 -67 -24 -89 -45 -31 -29 -51 -39 -51 -25 0 3 10 14 23 24
12 10 20 20 17 23 -3 2 -113 -17 -245 -42 l-240 -47 -12 -35 c-7 -19 -12 -42
-12 -51 -1 -10 -8 -18 -17 -18 -11 0 -14 5 -9 18 23 55 29 72 25 76 -3 2 -97
-14 -210 -36 -217 -42 -239 -51 -240 -105 0 -31 -17 -38 -30 -12 -9 17 -8 24
6 40 9 10 15 21 13 23 -4 3 -261 -41 -287 -49 -10 -4 -8 -12 8 -36 31 -43 18
-47 -16 -5 l-29 34 -60 -13 c-33 -7 -115 -23 -183 -35 l-123 -22 -27 -42 c-14
-22 -27 -43 -29 -45 -2 -2 -5 -2 -8 1 -3 3 1 18 9 33 8 16 13 32 11 35 -2 4
-59 -4 -126 -16 -68 -13 -124 -22 -126 -20 -2 2 8 34 21 72 14 38 23 79 20 91
-4 14 1 25 14 34 10 8 46 69 79 136 34 67 87 161 118 209 31 48 64 99 73 113
10 14 12 22 5 18 -16 -10 -16 -2 -3 24 6 10 18 19 26 19 16 0 45 28 65 63 12
21 14 22 -46 -11z"/>
<path d="M6835 5845 c-5 -2 -36 -9 -67 -15 -33 -7 -58 -17 -58 -24 0 -8 -25
-12 -82 -13 -46 0 -126 -10 -178 -22 -52 -11 -169 -35 -260 -51 -231 -43 -210
-35 -210 -85 0 -24 -5 -56 -10 -71 -6 -15 -9 -29 -6 -31 2 -3 26 -1 52 3 42 6
45 8 30 20 -16 11 -13 13 27 19 25 4 59 4 76 0 20 -4 132 13 328 51 164 31
300 58 302 60 1 1 -9 18 -23 37 -31 41 -34 67 -6 67 15 0 20 -7 20 -24 0 -49
28 -43 97 22 45 43 25 77 -32 57z"/>
<path d="M3814 5705 c-4 -8 -11 -15 -17 -15 -6 0 -19 -8 -29 -17 -16 -15 -24
-15 -69 -4 -28 7 -52 11 -55 9 -2 -3 3 -21 11 -41 20 -49 19 -63 -10 -101 -14
-18 -25 -36 -25 -39 0 -13 57 -7 95 9 48 20 82 14 42 -7 l-29 -16 25 -29 c25
-29 26 -29 41 -9 9 11 19 30 22 42 4 14 19 26 42 34 61 19 77 30 61 40 -8 4
-25 5 -39 2 -21 -5 -23 -4 -13 8 10 12 8 17 -8 27 -15 10 -19 23 -19 67 0 52
-14 73 -26 40z"/>
<path d="M6716 5611 c-3 -5 -15 -7 -26 -4 -15 4 -20 0 -20 -16 0 -11 -4 -21
-10 -21 -5 0 -7 7 -4 15 4 10 0 15 -12 15 -34 0 -304 -55 -304 -62 0 -4 9 -10
21 -13 11 -4 18 -9 15 -12 -3 -3 -20 0 -38 8 -32 13 -87 14 -100 1 -4 -4 0
-16 8 -26 13 -19 18 -19 201 17 104 20 205 39 226 43 33 6 67 34 67 56 0 11
-18 10 -24 -1z"/>
<path d="M7970 5614 c-187 -24 -763 -138 -768 -153 -2 -7 42 -250 99 -542 90
-465 105 -529 121 -529 10 0 25 8 33 18 8 9 28 33 45 52 17 21 29 29 29 20 1
-24 -67 -110 -94 -120 -14 -5 -25 -11 -25 -13 0 -2 13 -69 30 -148 16 -79 30
-147 30 -151 0 -19 28 -5 57 29 35 42 55 41 22 0 -11 -15 -17 -27 -12 -27 13
0 337 60 350 65 15 5 17 -15 -43 300 -25 132 -50 245 -55 251 -14 17 9 29 82
42 93 17 129 15 166 -8 58 -35 85 -99 109 -254 17 -117 24 -146 33 -144 18 2
24 -3 12 -11 -11 -7 -9 -17 7 -53 11 -25 24 -48 28 -51 5 -3 113 15 241 40
255 50 245 44 196 110 -37 51 -68 135 -97 265 -6 25 -7 26 -43 15 -21 -6 -50
-22 -65 -36 -24 -21 -28 -22 -28 -7 0 19 -1 19 -70 1 -16 -4 -11 2 15 16 37
21 38 22 17 30 -22 8 -31 39 -11 39 6 0 25 -11 43 -25 29 -22 36 -23 70 -14
50 14 59 40 35 103 -38 100 -108 170 -202 198 l-37 11 55 58 c50 53 81 103 99
165 5 16 2 23 -14 27 -18 5 -20 9 -10 26 6 12 15 21 20 21 16 0 11 74 -10 142
-34 111 -105 185 -211 221 -48 16 -189 28 -249 21z m-5 -325 c57 -63 67 -187
18 -241 -24 -28 -105 -65 -173 -80 -30 -6 -56 -12 -58 -14 -2 -1 18 -22 45
-47 26 -25 45 -48 42 -51 -3 -3 -20 -9 -39 -12 l-33 -7 7 36 c6 30 3 38 -13
46 -22 12 -34 1 -25 -23 4 -11 1 -16 -10 -16 -20 0 -21 38 -2 65 11 17 9 41
-15 170 -37 200 -38 192 14 204 23 5 79 9 125 8 82 -2 84 -3 117 -38z"/>
<path d="M6025 5484 c-133 -30 -144 -32 -172 -33 -18 -1 -23 -7 -23 -26 0 -32
2 -32 186 5 212 42 196 37 184 60 -14 25 -36 24 -175 -6z"/>
<path d="M5665 5415 c-60 -13 -157 -31 -213 -41 -94 -16 -105 -20 -113 -42 -5
-14 -8 -27 -5 -29 2 -2 64 8 137 22 74 15 156 31 184 36 144 25 155 29 155 55
0 29 -1 29 -145 -1z"/>
<path d="M6725 5380 c-98 -20 -129 -30 -127 -41 5 -22 35 -40 62 -37 23 3 25
-1 28 -39 3 -47 -14 -59 -24 -18 -8 31 -66 69 -94 60 -18 -6 -20 -3 -14 20 6
23 4 25 -17 21 -84 -18 -293 -60 -467 -92 -112 -22 -209 -42 -215 -46 -8 -5
12 -127 67 -410 43 -222 94 -484 113 -583 62 -327 83 -428 87 -432 2 -3 25 -1
50 2 34 5 46 12 46 24 0 10 13 21 32 26 33 10 53 37 62 86 3 14 21 46 41 72
50 66 46 78 -19 52 -35 -15 -12 16 29 40 36 19 40 26 43 64 3 33 -3 52 -22 82
-28 41 -32 59 -16 59 6 0 10 17 10 37 0 23 3 34 10 27 11 -11 40 -171 40 -221
0 -42 35 -63 75 -45 40 18 32 -12 -10 -38 -19 -12 -35 -26 -35 -31 0 -5 -21
-24 -46 -42 -31 -21 -53 -47 -65 -75 -10 -24 -29 -47 -43 -53 -22 -10 -42 -37
-34 -44 3 -3 314 60 328 65 3 1 9 2 13 1 7 -1 296 54 473 90 l52 10 -14 72
c-8 40 -19 99 -25 133 -6 33 -14 65 -18 72 -5 9 -52 3 -187 -23 -287 -57 -388
-75 -393 -70 -8 8 -61 290 -57 301 3 7 46 19 98 28 212 38 414 79 422 86 8 8
-32 250 -45 272 -5 8 -44 4 -141 -15 -73 -15 -185 -36 -248 -47 -63 -12 -123
-23 -132 -26 -14 -4 -18 8 -29 71 -6 42 -16 78 -20 81 -5 3 -9 -2 -9 -11 0
-22 -24 -14 -28 9 -5 26 16 45 28 26 8 -13 10 -13 10 2 0 9 -4 19 -9 23 -5 3
-8 18 -7 33 3 26 8 28 102 48 55 12 179 36 276 54 98 19 183 37 189 41 9 5 6
38 -11 126 -13 65 -26 125 -29 134 -5 13 -21 12 -136 -11z"/>
<path d="M5095 5305 c-93 -18 -241 -47 -329 -64 -97 -18 -165 -36 -176 -46
-13 -12 -28 -15 -49 -10 -37 8 -612 -101 -623 -119 -4 -6 -8 -18 -8 -27 0 -14
22 -12 172 17 94 18 174 38 178 44 4 6 13 8 22 5 12 -5 212 26 258 40 14 4
296 58 575 110 179 34 172 32 177 60 6 31 18 31 -197 -10z"/>
<path d="M5325 5110 c-104 -20 -289 -56 -410 -79 -121 -23 -257 -49 -301 -58
-45 -8 -87 -19 -93 -23 -9 -5 8 -111 66 -413 88 -456 88 -458 140 -347 15 33
31 60 34 60 4 0 0 -23 -8 -51 -19 -66 -11 -74 69 -71 50 2 60 0 50 -10 -7 -7
-39 -12 -75 -13 l-62 0 -24 -48 -24 -48 32 -162 c18 -89 39 -195 47 -236 8
-41 16 -76 18 -78 2 -2 6 9 9 24 4 15 16 39 27 53 19 24 20 24 20 4 0 -12 -5
-35 -11 -53 -6 -18 -10 -34 -8 -36 2 -2 56 7 119 20 63 14 147 29 186 36 40 6
77 14 83 18 14 9 -1 100 -19 111 -7 5 -8 10 -2 14 6 3 6 23 1 51 -10 56 -16
65 -36 65 -16 0 -15 12 2 82 4 15 1 31 -7 39 -7 8 -13 36 -14 63 0 34 -6 52
-18 61 -12 9 -14 15 -6 20 8 5 9 23 5 55 -7 54 -14 49 90 66 60 10 69 17 94
81 13 32 30 65 37 74 8 8 14 26 14 38 0 31 21 113 33 129 13 16 10 16 -133
-13 -68 -14 -124 -25 -126 -25 -8 0 -44 -81 -44 -100 0 -42 -17 -18 -18 28 -1
26 -6 58 -11 72 -6 14 -17 63 -26 110 -9 47 -18 91 -21 99 -8 24 -34 -8 -40
-50 -4 -22 -10 -39 -15 -39 -12 0 -11 25 2 93 11 55 24 68 45 47 7 -7 29 -6
68 1 45 10 60 17 66 35 5 13 23 30 40 39 36 18 38 14 8 -15 -42 -39 -7 -39
196 1 110 22 201 40 202 42 1 1 -3 29 -10 62 -7 33 -14 54 -17 46 -7 -19 -39
-7 -39 15 0 9 9 18 21 21 11 3 18 11 15 18 -2 7 -8 33 -11 59 -4 25 -10 48
-14 50 -3 2 -91 -13 -196 -34z m-217 -1300 c7 -11 18 -17 27 -14 33 13 30 -49
-8 -151 -30 -81 -79 -35 -57 53 12 47 5 69 -11 39 -16 -27 -32 -21 -24 10 7
29 42 83 53 83 4 0 13 -9 20 -20z"/>
<path d="M9562 5062 c-10 -7 -8 -33 12 -128 67 -323 98 -505 92 -540 -8 -39
-65 -109 -99 -120 -29 -9 -442 -93 -487 -99 -19 -2 -77 -13 -128 -23 -70 -15
-97 -25 -108 -41 -9 -12 -20 -19 -25 -15 -6 4 -6 10 1 19 11 13 -27 7 -305
-48 -94 -19 -121 -28 -123 -41 -3 -16 -5 -16 -15 -2 -11 15 -29 13 -182 -18
-93 -18 -248 -49 -342 -67 -170 -33 -191 -42 -159 -68 11 -9 62 -3 228 29 117
22 221 45 230 50 10 6 32 10 50 10 18 1 62 7 98 16 36 8 83 17 105 20 22 2
164 29 315 59 151 31 291 58 310 61 19 3 134 25 255 49 121 25 234 47 250 49
17 2 41 8 55 14 37 14 93 69 84 83 -4 7 3 19 16 29 37 28 36 91 -5 290 -20 96
-38 189 -40 205 -1 17 -12 74 -24 128 -12 53 -21 99 -21 102 0 8 -23 6 -38 -3z"/>
<path d="M3750 5044 c-169 -34 -907 -174 -922 -174 -10 0 -18 -5 -18 -11 0 -8
16 -10 50 -6 29 4 50 2 50 -3 0 -17 51 -11 230 25 95 19 175 35 176 35 2 0 1
7 -2 15 -8 19 12 20 23 1 7 -11 27 -10 123 10 63 13 165 33 227 44 204 37 211
39 206 61 -6 23 -44 24 -143 3z"/>
<path d="M4050 4864 c-63 -12 -116 -23 -117 -23 -2 -1 -3 -9 -3 -18 -1 -16 -2
-16 -13 -3 -10 13 -20 14 -67 5 -56 -11 -61 -18 -45 -57 11 -28 -45 -23 -72 6
l-23 23 -107 -19 c-134 -25 -145 -30 -110 -53 15 -9 27 -26 27 -36 0 -10 11
-26 25 -35 14 -9 25 -23 25 -30 0 -8 6 -14 14 -14 15 0 26 -30 26 -72 0 -38
-11 -35 -49 12 -38 47 -56 50 -78 12 -18 -32 -108 -102 -130 -102 -26 0 -8 24
41 57 27 17 61 44 77 59 28 27 38 54 20 54 -5 0 -12 15 -15 33 -4 17 -15 43
-24 55 l-19 24 -132 -23 -133 -23 7 -35 c4 -20 11 -38 16 -39 5 -2 6 -8 3 -14
-5 -8 10 -121 22 -158 4 -13 6 -13 14 0 8 13 13 12 39 -3 16 -9 41 -17 55 -17
14 0 26 -4 26 -9 0 -23 -82 -30 -108 -9 -7 6 -14 9 -16 7 -3 -2 9 -69 24 -149
16 -80 50 -253 75 -385 25 -132 59 -305 75 -385 16 -80 32 -166 35 -192 4 -27
12 -48 17 -48 5 0 53 9 106 19 54 11 114 22 135 26 48 8 49 32 1 63 -22 15
-34 29 -32 40 6 28 65 17 100 -19 30 -29 30 -30 9 -36 -11 -3 -21 -9 -21 -14
0 -17 22 -20 76 -9 l56 12 -6 41 c-4 23 -29 157 -57 298 l-50 257 25 27 c17
19 26 39 26 62 0 23 5 35 18 40 9 3 26 16 37 28 22 25 85 44 85 26 0 -6 -20
-31 -45 -57 -25 -25 -45 -52 -45 -60 0 -8 -7 -14 -15 -14 -8 0 -15 -6 -15 -13
0 -13 65 -4 230 32 25 5 87 17 138 27 72 13 92 20 92 33 -1 24 -49 263 -54
268 -3 3 -38 -2 -78 -11 -40 -9 -136 -27 -213 -41 -174 -32 -169 -30 -155 -55
13 -25 -6 -28 -36 -5 -10 8 -27 15 -36 15 -10 0 -18 1 -18 3 0 1 -11 58 -24
126 -14 69 -23 128 -20 133 3 4 14 8 26 8 19 0 540 99 545 104 8 7 -52 276
-61 275 -6 -1 -63 -12 -126 -25z m-596 -1299 c33 -35 38 -37 76 -31 39 6 41 5
51 -24 6 -16 17 -30 25 -30 23 0 18 -67 -5 -80 -26 -14 -28 -13 -34 10 -3 12
-14 20 -27 20 -37 0 -60 19 -60 49 0 28 -34 70 -47 58 -12 -12 -44 54 -37 76
5 16 8 18 15 5 4 -8 24 -32 43 -53z"/>
<path d="M1626 4839 c-77 -16 -141 -31 -144 -34 -3 -3 5 -16 18 -29 22 -25 23
-35 4 -98 -4 -15 3 -15 82 3 48 10 142 29 208 40 113 20 175 38 136 39 -9 0
-39 25 -67 55 -36 37 -59 55 -75 54 -13 -1 -86 -14 -162 -30z"/>
<path d="M2685 4840 c-49 -11 -148 -30 -220 -44 -227 -44 -229 -44 -242 -71
-9 -21 -9 -25 4 -25 15 0 524 97 554 106 11 3 15 12 11 29 -2 14 -7 25 -11 24
-3 -1 -46 -9 -96 -19z"/>
<path d="M1974 4688 c-18 -14 -24 -16 -15 -5 7 9 12 17 9 17 -2 0 -131 -25
-286 -55 -156 -30 -285 -55 -288 -55 -5 0 5 -40 11 -48 1 -1 94 15 206 37 112
22 233 45 269 51 150 26 160 30 160 56 0 31 -27 32 -66 2z"/>
<path d="M5525 4589 c-97 -18 -95 -17 -95 -52 0 -37 -8 -51 -34 -60 -13 -5
-17 -13 -12 -31 3 -13 -1 -59 -10 -101 -9 -42 -14 -78 -12 -81 5 -5 268 43
275 50 6 6 -48 286 -56 285 -3 -1 -28 -5 -56 -10z"/>
<path d="M1215 4556 c-60 -13 -211 -42 -334 -66 -253 -49 -285 -64 -329 -150
-28 -56 -32 -166 -6 -156 9 3 19 6 24 6 4 0 9 26 12 58 5 66 32 113 79 138 28
14 174 46 364 80 44 7 96 18 115 23 19 5 81 17 138 27 80 14 102 21 97 32 -3
7 -5 18 -5 23 0 13 -30 10 -155 -15z"/>
<path d="M2346 4563 c-27 -3 -40 -10 -43 -24 -3 -10 -13 -19 -23 -19 -10 0
-27 -16 -38 -34 -20 -33 -85 -76 -116 -76 -8 0 -23 -12 -34 -27 -14 -19 -24
-24 -38 -19 -18 7 -18 8 1 22 84 59 193 150 187 156 -15 14 -202 -33 -226 -57
-7 -8 -16 -12 -19 -9 -8 8 -57 -18 -51 -27 3 -5 -6 -9 -20 -9 -51 0 -172 -117
-215 -210 -24 -52 -26 -64 -25 -200 0 -129 9 -208 40 -362 4 -18 15 -30 35
-37 36 -12 40 -36 4 -27 -16 4 -25 2 -25 -5 0 -35 67 -264 95 -326 78 -170
226 -253 451 -253 318 0 593 123 692 307 36 69 56 172 47 252 -19 175 -38 289
-50 308 -8 12 -12 29 -9 37 5 14 -42 254 -52 265 -3 3 -11 -4 -18 -15 -12 -15
-17 -16 -27 -7 -10 10 -8 18 10 37 l24 25 -23 55 c-43 107 -146 220 -177 195
-7 -7 -17 -9 -20 -5 -4 4 -1 11 7 16 11 7 8 11 -13 21 -21 9 -30 9 -42 -1 -13
-11 -14 -10 -9 3 4 12 -6 19 -48 31 -59 17 -172 26 -232 19z m-88 -291 c59 11
114 2 146 -23 35 -27 62 -106 102 -298 19 -92 38 -177 41 -191 4 -14 6 -28 5
-32 -1 -4 5 -41 13 -82 7 -42 17 -113 20 -158 l7 -83 -34 -32 c-115 -112 -129
-128 -123 -150 4 -19 1 -23 -19 -23 -23 0 -24 2 -15 29 6 17 22 42 37 56 l27
27 -46 -7 c-32 -5 -57 -2 -83 9 -47 20 -50 20 -42 1 3 -9 0 -15 -9 -15 -16 0
-21 25 -6 34 5 3 -2 26 -15 51 -12 25 -35 99 -51 165 -15 66 -31 120 -35 120
-3 0 -17 -17 -29 -37 l-23 -37 -9 28 c-7 20 -5 32 7 49 9 12 23 32 32 45 16
21 15 32 -10 165 -42 229 -32 341 34 362 12 4 19 13 16 20 -2 7 -2 16 2 20 4
4 8 0 10 -8 2 -11 12 -13 50 -5z"/>
<path d="M563 4159 c-13 -5 -23 -11 -23 -14 0 -7 57 -297 65 -332 3 -13 11
-23 18 -23 35 1 35 15 -1 196 -36 178 -37 181 -59 173z"/>
<path d="M7465 3864 c-5 -2 -82 -17 -170 -33 -631 -119 -584 -108 -578 -131 3
-11 0 -20 -6 -20 -6 0 -11 7 -11 15 0 8 -9 15 -19 15 -17 0 -335 -61 -1046
-199 -110 -22 -292 -56 -404 -78 -199 -37 -220 -45 -208 -77 4 -11 15 -12 49
-5 24 4 140 26 258 49 118 23 274 52 345 66 72 14 144 30 160 37 17 6 37 10
46 9 14 -2 396 69 869 162 96 19 204 40 239 46 36 6 80 22 100 36 40 27 60 31
41 9 -17 -20 -8 -20 115 6 55 11 114 23 130 26 17 3 42 15 56 27 15 12 35 26
45 33 18 11 11 16 -11 7z"/>
<path d="M524 3800 c-6 -6 -33 -19 -60 -30 -41 -15 -49 -22 -46 -42 2 -22 17
-98 97 -508 19 -96 51 -260 70 -365 25 -130 46 -209 66 -251 54 -114 189 -212
305 -222 64 -5 77 15 39 60 -31 36 -31 42 -3 60 22 15 22 15 -17 22 -84 16
-163 77 -196 151 -10 22 -47 193 -84 380 -36 187 -83 431 -105 542 -22 111
-40 204 -40 207 0 10 -15 7 -26 -4z"/>
<path d="M620 3749 c0 -12 16 -106 36 -208 19 -102 39 -204 43 -226 4 -22 13
-39 19 -37 14 2 16 -10 3 -24 -6 -5 -2 -45 9 -99 11 -49 33 -164 50 -255 17
-90 37 -178 44 -195 17 -40 64 -95 82 -95 23 0 16 18 -16 36 -34 21 -43 39
-31 62 14 27 2 72 -20 72 -11 0 -19 7 -19 16 0 10 6 14 15 10 19 -7 19 3 -1
84 -8 36 -24 117 -35 180 -24 145 -25 147 -52 154 -21 6 -21 7 -4 20 23 18 13
102 -14 117 -22 11 -25 35 -7 41 10 4 4 48 -22 184 -33 165 -37 179 -58 182
-17 3 -22 -2 -22 -19z"/>
<path d="M4726 3336 c-146 -29 -160 -33 -169 -56 l-10 -25 -4 23 c-3 16 -10
21 -21 18 -9 -3 -81 -17 -160 -31 -79 -14 -171 -32 -205 -39 -34 -8 -105 -22
-158 -31 -96 -17 -96 -17 -85 -41 9 -20 16 -23 46 -18 48 8 900 173 926 179
11 2 26 16 32 30 11 23 10 25 -11 24 -12 -1 -93 -15 -181 -33z"/>
<path d="M6435 3223 c-10 -56 -20 -68 -64 -82 -59 -17 -57 -26 6 -23 52 4 54
3 44 -16 -6 -11 -16 -23 -23 -26 -10 -5 -10 -7 0 -12 7 -3 12 -26 12 -60 0
-30 3 -54 6 -54 3 0 23 14 45 32 l39 32 50 -16 c55 -18 58 -15 39 41 -12 33
-36 41 -45 16 -4 -8 -13 -15 -21 -15 -13 0 -13 3 -3 15 10 12 10 18 0 30 -11
13 -8 14 17 9 25 -5 33 -1 56 29 36 48 34 57 -12 57 -47 0 -90 -21 -108 -52
-11 -21 -12 -22 -13 -3 0 11 9 33 19 49 20 29 20 30 0 58 -27 37 -35 35 -44
-9z"/>
<path d="M7236 3163 c-62 -113 -123 -205 -213 -320 -40 -51 -71 -93 -68 -93 2
0 15 4 29 9 17 7 26 7 28 -1 2 -6 29 23 60 63 40 51 53 76 45 81 -9 6 -8 10 3
18 8 5 20 10 25 10 10 0 86 116 145 223 33 58 33 59 13 78 -19 19 -20 19 -67
-68z"/>
<path d="M7280 3027 c-30 -50 -55 -96 -55 -102 0 -5 -5 -12 -11 -15 -6 -3 -45
-50 -87 -105 -55 -74 -72 -103 -65 -113 8 -9 7 -11 -3 -7 -9 3 -70 -49 -159
-137 -80 -79 -189 -176 -242 -217 -54 -40 -96 -76 -94 -80 2 -3 9 -32 16 -63
l11 -58 47 32 c70 47 176 132 271 217 163 147 397 428 385 463 -3 12 0 18 10
18 9 0 31 23 50 51 l34 51 -22 66 c-13 37 -25 73 -27 79 -2 7 -29 -29 -59 -80z"/>
<path d="M3253 3052 c-183 -36 -283 -60 -283 -68 0 -8 -12 -10 -38 -7 -36 5
-177 -20 -592 -103 -69 -14 -138 -28 -155 -30 -35 -6 -688 -132 -880 -170
-283 -56 -289 -57 -359 -28 -15 6 -17 4 -10 -7 5 -8 9 -23 9 -34 0 -14 10 -21
40 -28 53 -11 324 38 332 60 4 10 8 11 13 4 4 -8 21 -9 56 -1 27 5 229 44 449
85 220 42 452 87 515 100 63 13 136 27 163 31 30 4 47 11 47 20 0 16 27 19 32
4 2 -8 984 175 996 186 2 1 1 12 -3 23 -4 14 -14 21 -28 20 -12 -1 -149 -26
-304 -57z"/>
<path d="M6057 2936 l-37 -63 -81 -7 -80 -7 25 -32 c15 -18 38 -46 52 -64 l25
-32 -20 -72 c-11 -40 -19 -74 -17 -76 2 -2 35 10 75 27 39 17 75 28 80 26 9
-6 10 8 15 114 5 98 4 94 21 80 18 -15 19 -69 4 -124 -9 -33 -8 -41 5 -48 9
-5 16 -15 16 -23 0 -15 35 -30 50 -20 5 3 10 28 10 55 0 46 2 50 53 91 28 23
56 46 61 50 5 4 -4 11 -20 14 -130 29 -130 29 -160 105 -15 39 -30 70 -34 70
-3 0 -23 -29 -43 -64z"/>
<path d="M8561 2959 c-61 -160 -199 -426 -314 -609 -77 -123 -267 -376 -347
-462 -34 -38 -56 -68 -49 -68 7 0 22 8 33 17 15 13 14 10 -3 -10 -14 -15 -31
-27 -40 -27 -8 0 -62 -46 -120 -103 -59 -57 -133 -126 -166 -155 -58 -49 -59
-52 -40 -66 11 -8 26 -11 33 -7 7 4 58 49 113 100 67 62 98 98 94 108 -3 10
-1 13 9 10 10 -4 45 26 101 85 67 71 85 96 83 116 -3 21 3 27 30 36 27 7 53
36 132 140 182 244 325 483 432 726 75 169 80 180 69 180 -5 0 -16 3 -25 6
-11 4 -19 -2 -25 -17z"/>
<path d="M4270 2791 c-11 -48 -14 -51 -61 -66 -27 -9 -49 -20 -49 -25 0 -5 18
-19 40 -31 22 -13 41 -26 41 -31 4 -25 7 -52 8 -79 l1 -31 39 31 c44 35 53 37
110 16 46 -16 47 -15 26 46 -13 38 -19 45 -42 44 -19 0 -29 6 -31 18 -6 28 17
47 58 47 21 0 43 7 50 15 10 12 2 14 -51 17 -60 3 -65 5 -87 38 -13 19 -27 36
-31 38 -5 2 -14 -20 -21 -47z"/>
<path d="M5243 2737 c2 -7 19 -51 37 -99 l32 -87 -56 -81 c-31 -45 -56 -84
-56 -87 0 -3 46 -4 102 -2 l102 4 58 -75 c32 -41 61 -76 66 -78 4 -1 19 38 31
88 13 49 29 94 36 100 7 6 44 21 83 34 114 39 114 35 18 99 -46 31 -87 65 -91
77 -8 24 -41 26 -73 4 -21 -14 -27 -14 -61 0 -31 12 -45 13 -69 4 -16 -6 -37
-8 -47 -5 -15 6 -15 10 -4 23 7 9 24 20 37 25 14 5 23 11 21 13 -2 2 -42 15
-87 29 -53 17 -82 22 -79 14z"/>
<path d="M6806 2603 c-305 -296 -662 -499 -1060 -602 -66 -17 -125 -36 -131
-41 -7 -5 -14 -7 -18 -4 -3 3 -39 0 -81 -7 -70 -11 -76 -14 -76 -35 0 -17 6
-24 19 -24 36 0 175 30 180 39 3 4 25 8 49 8 27 0 50 7 62 18 11 10 26 15 35
11 23 -8 196 50 354 120 104 46 135 64 143 84 7 19 11 21 18 10 7 -11 26 -3
97 40 187 114 327 225 486 386 76 76 94 100 80 103 -10 2 -20 7 -23 11 -3 4
-63 -48 -134 -117z"/>
<path d="M4748 2680 c3 -21 -1 -31 -17 -39 -12 -7 -21 -18 -21 -27 0 -13 4
-12 31 2 23 11 34 13 42 5 9 -9 6 -13 -11 -18 -18 -4 -22 -11 -18 -28 4 -14 0
-28 -9 -35 -12 -10 -16 -8 -25 14 l-9 26 -66 -46 c-36 -25 -65 -47 -65 -49 0
-2 30 -13 68 -26 84 -27 87 -30 101 -83 6 -25 16 -57 21 -72 l11 -27 34 49
c19 27 35 56 35 65 0 14 14 17 87 18 48 1 89 4 91 6 2 2 -17 31 -43 65 l-47
61 26 71 c15 39 25 73 22 75 -10 10 -76 -19 -69 -30 4 -6 0 -8 -10 -4 -10 4
-29 2 -43 -3 -22 -9 -32 -6 -62 18 -56 44 -59 44 -54 12z"/>
<path d="M3580 2451 c0 -5 -2 -15 -5 -23 -3 -8 14 -28 43 -51 41 -31 55 -36
81 -31 20 4 31 3 31 -5 0 -6 -4 -11 -10 -11 -5 0 -10 -6 -10 -13 0 -11 200
-137 288 -181 32 -16 33 -16 41 6 7 20 3 26 -33 47 -160 92 -234 138 -318 200
-97 72 -108 78 -108 62z"/>
<path d="M7170 2421 c-71 -22 -112 -52 -325 -240 -71 -63 -133 -117 -138 -121
-9 -7 541 -630 564 -638 9 -4 181 143 187 160 2 4 -38 54 -89 111 -51 56 -102
113 -114 125 l-20 24 30 24 c49 41 85 56 113 49 15 -4 67 -48 118 -101 50 -52
98 -94 107 -94 8 0 38 21 66 46 l51 46 -15 34 c-16 39 -9 43 27 14 l25 -19 27
27 c14 16 26 31 26 34 0 4 -18 9 -40 13 -23 4 -39 12 -38 19 5 20 -148 163
-188 176 -20 7 -58 10 -84 8 -48 -5 -48 -5 -39 19 14 38 11 122 -7 159 -44 92
-158 151 -244 125z m14 -249 c10 -9 25 -32 33 -49 17 -42 2 -83 -50 -131 l-34
-33 -51 53 c-28 29 -60 65 -71 80 l-21 26 39 31 c68 54 112 60 155 23z"/>
<path d="M6415 2169 c-71 -43 -158 -91 -193 -106 -47 -21 -61 -32 -58 -45 6
-25 -13 -34 -31 -16 -13 13 -23 12 -84 -13 -58 -24 -138 -50 -288 -95 -11 -4
-10 -8 3 -23 10 -11 16 -27 14 -38 -2 -14 4 -19 32 -21 19 -2 39 -7 44 -12 11
-11 82 11 251 77 141 55 245 106 388 192 84 50 84 50 64 132 l-12 46 -130 -78z"/>
<path d="M4056 2137 c-8 -30 7 -39 154 -96 163 -64 267 -95 421 -126 148 -29
165 -30 173 -9 8 21 -2 35 -22 33 -10 -1 -28 1 -42 4 -14 4 -79 18 -145 33
-141 30 -279 75 -427 137 -104 44 -106 45 -112 24z"/>
<path d="M3997 2033 c-8 -16 -17 -41 -21 -56 -6 -27 -4 -29 71 -63 43 -20 88
-37 100 -38 12 -2 28 -7 35 -13 17 -14 211 -77 313 -102 270 -66 628 -89 912
-57 149 16 456 79 413 84 -55 6 -70 14 -85 41 -8 16 -24 32 -35 36 -11 3 -75
-3 -142 -14 -138 -23 -316 -40 -428 -42 -222 -3 -559 50 -775 122 l-119 40
-18 -23 -18 -23 2 28 c3 27 -2 31 -87 68 -49 21 -93 39 -97 39 -4 0 -14 -12
-21 -27z"/>
<path d="M2232 1980 c-5 -14 -6 -32 -2 -40 5 -8 61 -73 125 -143 78 -85 122
-126 132 -123 8 3 21 6 30 6 8 0 13 4 11 9 -7 21 -210 222 -203 202 5 -15 2
-21 -9 -21 -11 0 -18 13 -22 41 -4 23 -17 53 -30 68 l-23 26 -9 -25z"/>
<path d="M4851 1904 c-9 -21 -6 -22 42 -28 75 -9 338 -10 440 -1 80 7 87 9 87
29 0 21 -1 21 -280 21 -276 0 -279 0 -289 -21z"/>
<path d="M6500 1923 c-50 -4 -430 -180 -430 -199 0 -8 355 -751 365 -762 1 -1
32 12 68 29 l66 31 -16 24 c-22 34 -5 45 19 12 l20 -26 122 60 c66 34 154 76
194 94 39 18 72 36 72 41 -1 4 -18 40 -38 79 l-37 71 -92 -44 -93 -44 0 -44
c0 -24 -4 -47 -10 -50 -5 -3 -10 2 -10 13 0 10 -9 27 -19 36 -18 16 -21 16
-51 1 -18 -9 -33 -15 -35 -13 -9 10 -75 149 -75 158 0 6 29 25 65 42 60 30 65
35 65 65 0 21 -6 36 -15 39 -12 5 -13 9 -4 21 9 10 9 17 1 25 -20 20 -14 40
11 36 18 -2 22 -9 23 -43 0 -53 12 -85 30 -85 12 0 90 35 102 45 3 2 -65 144
-73 153 -1 1 -62 -27 -135 -63 -73 -36 -138 -65 -144 -65 -11 0 -81 129 -74
135 2 2 45 24 96 48 112 55 142 81 142 124 0 49 -9 63 -39 61 -14 -1 -46 -3
-71 -5z"/>
<path d="M7904 1735 c-64 -71 -88 -103 -89 -126 -3 -38 -12 -47 -28 -26 -11
14 -23 6 -102 -65 -255 -229 -545 -429 -843 -583 -79 -41 -97 -60 -113 -120
-6 -22 -20 -52 -30 -67 -11 -15 -16 -33 -13 -43 6 -15 4 -16 -15 -6 -12 7 -25
10 -30 7 -7 -5 -3 -66 5 -66 6 0 258 117 324 150 42 21 59 35 51 40 -9 5 -9
10 -3 14 6 3 12 1 14 -5 5 -14 36 1 185 93 62 38 113 74 113 79 0 5 6 9 14 9
41 0 478 350 497 398 5 12 19 26 31 31 35 13 318 310 318 333 0 11 -110 39
-130 33 -11 -3 -32 -22 -46 -41 -34 -44 -52 -44 -25 0 22 36 27 56 12 56 -5 0
-48 -43 -97 -95z"/>
<path d="M3952 1793 c-16 -3 -29 -18 -41 -46 -18 -41 -51 -80 -51 -59 0 5 7
26 15 46 15 35 15 37 -2 27 -22 -12 -64 -57 -87 -94 -43 -69 -146 -359 -146
-411 0 -14 6 -16 29 -11 37 8 53 -15 40 -58 -11 -40 -34 -63 -25 -26 7 33 1
39 -28 26 -20 -9 -22 -16 -16 -43 10 -42 40 -91 80 -129 l31 -30 -16 38 c-18
44 -5 49 24 9 14 -21 17 -32 9 -40 -7 -7 6 -19 49 -40 209 -106 396 -94 482
32 65 95 172 403 171 495 -1 85 -51 163 -142 221 -71 46 -160 79 -166 61 -2
-6 -18 -18 -36 -25 -23 -10 -39 -27 -54 -60 -12 -25 -27 -46 -32 -46 -20 0
-23 31 -7 68 9 20 19 52 22 70 l7 32 -44 -1 c-24 -1 -53 -4 -66 -6z m195 -184
c47 -17 73 -49 73 -87 0 -37 -95 -312 -134 -390 -34 -67 -47 -76 -103 -69 -37
4 -54 12 -76 37 -34 39 -33 53 30 240 86 254 123 302 210 269z"/>
<path d="M5650 1634 c-146 -29 -270 -56 -276 -58 -12 -5 -11 -14 91 -511 36
-176 65 -321 65 -322 0 -2 7 -3 15 -3 8 0 18 14 23 32 10 40 32 49 32 14 0
-15 6 -29 13 -31 6 -2 48 4 92 14 56 12 80 22 79 32 -7 69 -71 339 -81 339
-11 0 -33 30 -33 44 0 17 32 2 40 -18 l9 -24 68 14 c203 41 183 33 183 70 0
18 5 36 11 40 9 5 10 -3 5 -30 -6 -32 -4 -36 13 -36 11 0 22 4 25 9 6 9 -20
150 -29 159 -2 2 -72 -10 -157 -26 -84 -17 -154 -30 -155 -28 -8 8 -31 142
-25 148 6 5 306 68 327 68 4 0 5 10 2 23 -3 12 -11 48 -17 80 -10 49 -15 57
-33 56 -12 0 -141 -25 -287 -55z"/>
<path d="M4655 1597 c-6 -17 -57 -838 -53 -843 2 -1 47 -6 101 -11 97 -9 98
-9 104 15 7 28 -2 39 -19 24 -10 -8 -13 2 -12 51 1 56 3 62 22 65 24 4 27 -4
13 -27 -7 -10 -5 -19 6 -26 9 -7 18 -33 21 -63 2 -29 8 -52 12 -52 8 0 16 72
26 249 l7 114 144 -7 c80 -4 151 -10 158 -12 14 -6 23 32 27 121 l2 50 -77 5
c-62 4 -78 2 -83 -10 -4 -13 -7 -12 -15 3 -7 11 -22 17 -48 17 -21 0 -51 3
-67 6 l-29 5 3 75 4 74 56 0 c31 0 108 -5 171 -10 63 -6 115 -9 117 -8 1 2 5
39 9 84 l7 81 -98 6 c-55 3 -178 11 -274 17 -96 5 -188 12 -203 15 -17 3 -29
0 -32 -8z"/>
<path d="M2692 1505 c-12 -25 1 -37 203 -192 74 -57 255 -173 378 -244 111
-64 123 -68 134 -52 7 9 13 19 13 22 0 3 -48 33 -107 66 -143 80 -348 216
-458 303 -49 40 -96 72 -102 72 -7 0 -13 6 -13 13 0 7 -8 17 -19 24 -16 10
-20 8 -29 -12z"/>
<path d="M7385 1403 c-116 -93 -379 -261 -525 -337 -138 -71 -138 -71 -120
-93 l17 -22 147 79 c248 134 634 403 604 422 -27 17 -55 5 -123 -49z"/>
<path d="M3462 995 c-10 -22 -6 -25 131 -88 191 -87 506 -195 517 -177 5 8 15
10 26 5 18 -7 18 -7 1 -14 -20 -7 130 -46 168 -43 10 0 24 -3 31 -9 33 -27
411 -76 660 -85 194 -7 526 10 532 27 2 4 16 6 31 3 53 -11 500 75 524 101 6
6 19 10 29 7 41 -10 567 178 590 212 4 6 8 21 8 33 0 21 -1 21 -72 -11 -111
-50 -301 -121 -433 -161 -66 -19 -127 -38 -135 -42 -8 -3 -18 -6 -22 -5 -4 1
-54 -9 -110 -23 -214 -51 -596 -95 -831 -95 -60 0 -79 -3 -83 -15 -9 -22 -23
-18 -17 4 4 17 -3 19 -102 19 -59 0 -109 3 -113 6 -10 10 -51 6 -58 -5 -5 -8
-9 -8 -14 1 -5 7 -73 22 -161 36 -336 50 -679 154 -1010 307 l-77 35 -10 -23z"/>
</g>
</svg>
